<svg width="97" height="93" viewBox="0 0 97 93" fill="none" xmlns="http://www.w3.org/2000/svg">
<g clip-path="url(#clip0_411_703)">
<path d="M30.5199 83.3999C28.7399 82.3699 27.2199 80.8799 26.1599 79.0399L16.2199 61.7899C16.0299 61.4599 16.1399 61.0399 16.4699 60.8399L20.1299 58.7299C20.4599 58.5399 20.8799 58.6499 21.0799 58.9799L30.8199 75.8799C32.0699 78.0499 34.3799 79.3899 36.8899 79.3899L56.3999 79.4099C56.7799 79.4099 57.0899 79.7199 57.0899 80.0999V84.3199C57.0899 84.6999 56.7799 85.0099 56.3999 85.0099L36.4899 84.9899C34.3599 84.9999 32.3099 84.4299 30.5199 83.3999Z" fill="#D9DADA"/>
<path d="M20.2095 33.82L16.5695 31.69C16.2395 31.5 16.1295 31.07 16.3195 30.74L26.1595 13.9C28.4295 10.01 32.6095 7.63003 37.1195 7.65003L56.6295 7.75003C57.0095 7.75003 57.3195 8.06003 57.3195 8.45003L57.2995 12.67C57.2995 13.05 56.9895 13.36 56.5995 13.36L37.0895 13.26C34.5895 13.25 32.2595 14.57 30.9995 16.73L21.1595 33.57C20.9695 33.91 20.5395 34.02 20.2095 33.82Z" fill="#D9DADA"/>
<path d="M84.3304 70.1301L80.7004 67.9801C80.3704 67.7901 80.2604 67.3601 80.4604 67.0301L90.3804 50.2301C91.6504 48.0701 91.6804 45.4001 90.4504 43.2201L80.8604 26.2301C80.6704 25.9001 80.7904 25.4701 81.1204 25.2901L84.8004 23.2201C85.1304 23.0301 85.5604 23.1501 85.7404 23.4801L95.3304 40.4701C97.5504 44.3901 97.5004 49.2001 95.2104 53.0901L85.2904 69.8901C85.0804 70.2101 84.6504 70.3201 84.3304 70.1301Z" fill="#D9DADA"/>
<path d="M67.3802 19.7C62.3402 16.78 60.6102 10.31 63.5302 5.27005C66.4502 0.230046 72.9202 -1.49995 77.9602 1.42005C83.0002 4.34005 84.7302 10.81 81.8102 15.85C78.8902 20.89 72.4202 22.62 67.3802 19.7ZM75.1602 6.27005C72.7902 4.90005 69.7602 5.71005 68.3902 8.08005C67.0202 10.45 67.8302 13.48 70.2002 14.85C72.5702 16.22 75.6002 15.41 76.9702 13.04C78.3302 10.68 77.5202 7.64005 75.1602 6.27005Z" fill="#E7344E"/>
<path d="M67.3802 91.38C62.3402 88.46 60.6102 81.99 63.5302 76.95C66.4502 71.91 72.9202 70.18 77.9602 73.1C83.0002 76.02 84.7302 82.49 81.8102 87.53C78.9002 92.57 72.4202 94.3 67.3802 91.38ZM75.1602 77.95C72.7902 76.58 69.7602 77.39 68.3902 79.76C67.0202 82.13 67.8302 85.16 70.2002 86.53C72.5702 87.9 75.6002 87.09 76.9702 84.72C78.3302 82.36 77.5202 79.32 75.1602 77.95Z" fill="#E7344E"/>
<path d="M5.2698 55.4801C0.229802 52.5601 -1.5002 46.0901 1.4198 41.0501C4.3398 36.0101 10.8098 34.2801 15.8498 37.2001C20.8898 40.1201 22.6198 46.5901 19.6998 51.6301C16.7798 56.6701 10.3098 58.4001 5.2698 55.4801ZM13.0398 42.0501C10.6698 40.6801 7.6398 41.4901 6.2698 43.8601C4.8998 46.2301 5.7098 49.2601 8.0798 50.6301C10.4498 52.0001 13.4798 51.1901 14.8498 48.8201C16.2198 46.4501 15.4098 43.4201 13.0398 42.0501Z" fill="#E7344E"/>
<path d="M65.5002 32.1001H40.9902V37.6401H65.5002V32.1001Z" fill="white" stroke="white" stroke-width="0.5" stroke-miterlimit="10" stroke-linecap="round" stroke-linejoin="round"/>
<path d="M61.6898 43.76H44.7998V49.3H61.6898V43.76Z" fill="#E7344E"/>
<path d="M65.5002 55.4199H40.9902V60.9599H65.5002V55.4199Z" fill="white" stroke="white" stroke-width="0.5" stroke-miterlimit="10" stroke-linecap="round" stroke-linejoin="round"/>
</g>
<defs>
<clipPath id="clip0_411_703">
<rect width="96.94" height="92.8" fill="white"/>
</clipPath>
</defs>
</svg>
